<svg width="1920" height="636" viewBox="0 0 1920 636" fill="none" xmlns="http://www.w3.org/2000/svg">
<g clip-path="url(#clip0_142_144)">
<path d="M-6.00012 1284L1920 1284L1920 -0.00012207L-6.00012 -0.00012207L-6.00012 1284Z" fill="#3D3D3D"/>
<path d="M1920 614.18L1906.09 589.998C1892.18 565.602 1864.36 517.238 1836.54 504.612C1808.72 492.2 1780.9 515.74 1753.08 525.798C1725.26 535.642 1697.44 532.218 1669.19 540.992C1641.16 549.98 1612.48 571.38 1584.45 559.182C1556.2 547.198 1528.38 501.402 1500.56 471.442C1472.74 441.482 1444.92 427.358 1417.1 437.202C1389.28 447.26 1361.46 481.5 1333.64 509.32C1305.82 537.14 1278 558.54 1250.18 536.712C1222.36 515.098 1194.54 450.042 1166.72 434.848C1138.9 419.44 1111.08 453.68 1083.26 473.582C1055.44 493.698 1027.62 499.262 999.372 505.04C971.338 510.818 942.662 516.382 914.628 520.448C886.38 524.3 858.56 526.44 830.74 521.732C802.92 517.238 775.1 505.682 747.28 524.3C719.46 542.918 691.64 591.282 663.82 592.352C636 593.422 608.18 547.198 580.36 515.74C552.54 484.282 524.72 468.018 496.9 448.33C469.08 428.642 441.26 405.958 413.44 410.88C385.62 415.802 357.8 448.758 329.552 481.5C301.518 514.242 272.842 547.198 244.808 550.622C216.56 554.26 188.74 528.58 160.92 501.402C133.1 474.438 105.28 445.762 77.46 466.092C49.6399 486.422 21.8199 555.758 7.90991 590.212L-6.00012 624.88V-2.14014H7.90991C21.8199 -2.14014 49.6399 -2.14014 77.46 -2.14014C105.28 -2.14014 133.1 -2.14014 160.92 -2.14014C188.74 -2.14014 216.56 -2.14014 244.808 -2.14014C272.842 -2.14014 301.518 -2.14014 329.552 -2.14014C357.8 -2.14014 385.62 -2.14014 413.44 -2.14014C441.26 -2.14014 469.08 -2.14014 496.9 -2.14014C524.72 -2.14014 552.54 -2.14014 580.36 -2.14014C608.18 -2.14014 636 -2.14014 663.82 -2.14014C691.64 -2.14014 719.46 -2.14014 747.28 -2.14014C775.1 -2.14014 802.92 -2.14014 830.74 -2.14014C858.56 -2.14014 886.38 -2.14014 914.628 -2.14014C942.662 -2.14014 971.338 -2.14014 999.372 -2.14014C1027.62 -2.14014 1055.44 -2.14014 1083.26 -2.14014C1111.08 -2.14014 1138.9 -2.14014 1166.72 -2.14014C1194.54 -2.14014 1222.36 -2.14014 1250.18 -2.14014C1278 -2.14014 1305.82 -2.14014 1333.64 -2.14014C1361.46 -2.14014 1389.28 -2.14014 1417.1 -2.14014C1444.92 -2.14014 1472.74 -2.14014 1500.56 -2.14014C1528.38 -2.14014 1556.2 -2.14014 1584.45 -2.14014C1612.48 -2.14014 1641.16 -2.14014 1669.19 -2.14014C1697.44 -2.14014 1725.26 -2.14014 1753.08 -2.14014C1780.9 -2.14014 1808.72 -2.14014 1836.54 -2.14014C1864.36 -2.14014 1892.18 -2.14014 1906.09 -2.14014H1920V614.18Z" fill="#3D3D3D"/>
<path d="M1920 470.8L1906.09 483.212C1892.18 495.838 1864.36 520.662 1836.54 516.382C1808.72 512.102 1780.9 478.718 1753.08 463.738C1725.26 448.758 1697.44 452.182 1669.19 468.232C1641.16 484.282 1612.48 512.958 1584.45 496.908C1556.2 480.858 1528.38 420.082 1500.56 405.53C1472.74 390.978 1444.92 422.222 1417.1 457.532C1389.28 492.842 1361.46 532.218 1333.64 538.852C1305.82 545.7 1278 520.02 1250.18 514.67C1222.36 509.32 1194.54 524.3 1166.72 529.008C1138.9 533.502 1111.08 527.938 1083.26 528.58C1055.44 529.222 1027.62 536.498 999.372 518.522C971.338 500.76 942.662 457.96 914.628 437.63C886.38 417.3 858.56 419.44 830.74 415.588C802.92 411.522 775.1 401.678 747.28 390.978C719.46 380.278 691.64 368.722 663.82 363.158C636 357.38 608.18 357.38 580.36 385.842C552.54 414.518 524.72 471.442 496.9 483.212C469.08 494.982 441.26 461.598 413.44 461.812C385.62 462.24 357.8 496.48 329.552 502.472C301.518 508.678 272.842 486.422 244.808 489.632C216.56 492.842 188.74 521.518 160.92 528.58C133.1 535.642 105.28 521.518 77.46 502.472C49.6399 483.64 21.8199 460.1 7.90991 448.33L-6.00012 436.56V-2.14008H7.90991C21.8199 -2.14008 49.6399 -2.14008 77.46 -2.14008C105.28 -2.14008 133.1 -2.14008 160.92 -2.14008C188.74 -2.14008 216.56 -2.14008 244.808 -2.14008C272.842 -2.14008 301.518 -2.14008 329.552 -2.14008C357.8 -2.14008 385.62 -2.14008 413.44 -2.14008C441.26 -2.14008 469.08 -2.14008 496.9 -2.14008C524.72 -2.14008 552.54 -2.14008 580.36 -2.14008C608.18 -2.14008 636 -2.14008 663.82 -2.14008C691.64 -2.14008 719.46 -2.14008 747.28 -2.14008C775.1 -2.14008 802.92 -2.14008 830.74 -2.14008C858.56 -2.14008 886.38 -2.14008 914.628 -2.14008C942.662 -2.14008 971.338 -2.14008 999.372 -2.14008C1027.62 -2.14008 1055.44 -2.14008 1083.26 -2.14008C1111.08 -2.14008 1138.9 -2.14008 1166.72 -2.14008C1194.54 -2.14008 1222.36 -2.14008 1250.18 -2.14008C1278 -2.14008 1305.82 -2.14008 1333.64 -2.14008C1361.46 -2.14008 1389.28 -2.14008 1417.1 -2.14008C1444.92 -2.14008 1472.74 -2.14008 1500.56 -2.14008C1528.38 -2.14008 1556.2 -2.14008 1584.45 -2.14008C1612.48 -2.14008 1641.16 -2.14008 1669.19 -2.14008C1697.44 -2.14008 1725.26 -2.14008 1753.08 -2.14008C1780.9 -2.14008 1808.72 -2.14008 1836.54 -2.14008C1864.36 -2.14008 1892.18 -2.14008 1906.09 -2.14008H1920V470.8Z" fill="#4C4C4C"/>
<path d="M1920 404.46L1906.09 411.308C1892.18 417.942 1864.36 431.638 1836.54 433.35C1808.72 435.062 1780.9 425.218 1753.08 426.93C1725.26 428.642 1697.44 442.338 1669.19 448.33C1641.16 454.322 1612.48 453.038 1584.45 440.198C1556.2 427.358 1528.38 402.962 1500.56 414.09C1472.74 425.218 1444.92 471.442 1417.1 494.768C1389.28 517.88 1361.46 517.88 1333.64 502.258C1305.82 486.422 1278 455.178 1250.18 448.33C1222.36 441.482 1194.54 459.458 1166.72 469.088C1138.9 478.718 1111.08 480.002 1083.26 459.672C1055.44 439.342 1027.62 397.398 999.372 385.2C971.338 373.002 942.662 390.978 914.628 391.62C886.38 392.262 858.56 375.998 830.74 390.122C802.92 404.46 775.1 449.4 747.28 469.73C719.46 490.06 691.64 485.78 663.82 484.282C636 482.998 608.18 484.282 580.36 487.492C552.54 490.702 524.72 495.838 496.9 471.442C469.08 447.26 441.26 393.76 413.44 386.912C385.62 380.278 357.8 420.082 329.552 430.568C301.518 440.84 272.842 421.58 244.808 433.35C216.56 445.12 188.74 487.92 160.92 492.842C133.1 497.978 105.28 465.022 77.46 458.602C49.6399 452.182 21.8199 472.298 7.90991 482.142L-6.00012 492.2V-2.14014H7.90991C21.8199 -2.14014 49.6399 -2.14014 77.46 -2.14014C105.28 -2.14014 133.1 -2.14014 160.92 -2.14014C188.74 -2.14014 216.56 -2.14014 244.808 -2.14014C272.842 -2.14014 301.518 -2.14014 329.552 -2.14014C357.8 -2.14014 385.62 -2.14014 413.44 -2.14014C441.26 -2.14014 469.08 -2.14014 496.9 -2.14014C524.72 -2.14014 552.54 -2.14014 580.36 -2.14014C608.18 -2.14014 636 -2.14014 663.82 -2.14014C691.64 -2.14014 719.46 -2.14014 747.28 -2.14014C775.1 -2.14014 802.92 -2.14014 830.74 -2.14014C858.56 -2.14014 886.38 -2.14014 914.628 -2.14014C942.662 -2.14014 971.338 -2.14014 999.372 -2.14014C1027.62 -2.14014 1055.44 -2.14014 1083.26 -2.14014C1111.08 -2.14014 1138.9 -2.14014 1166.72 -2.14014C1194.54 -2.14014 1222.36 -2.14014 1250.18 -2.14014C1278 -2.14014 1305.82 -2.14014 1333.64 -2.14014C1361.46 -2.14014 1389.28 -2.14014 1417.1 -2.14014C1444.92 -2.14014 1472.74 -2.14014 1500.56 -2.14014C1528.38 -2.14014 1556.2 -2.14014 1584.45 -2.14014C1612.48 -2.14014 1641.16 -2.14014 1669.19 -2.14014C1697.44 -2.14014 1725.26 -2.14014 1753.08 -2.14014C1780.9 -2.14014 1808.72 -2.14014 1836.54 -2.14014C1864.36 -2.14014 1892.18 -2.14014 1906.09 -2.14014H1920V404.46Z" fill="#5C5C5C"/>
<path d="M1920 344.54L1906.09 367.438C1892.18 390.122 1864.36 435.918 1836.54 448.758C1808.72 461.598 1780.9 441.482 1753.08 412.378C1725.26 383.06 1697.44 344.54 1669.19 353.1C1641.16 361.66 1612.48 417.3 1584.45 420.938C1556.2 424.362 1528.38 375.998 1500.56 348.178C1472.74 320.358 1444.92 313.082 1417.1 323.14C1389.28 333.198 1361.46 360.162 1333.64 374.072C1305.82 387.982 1278 388.838 1250.18 402.32C1222.36 415.802 1194.54 442.338 1166.72 440.84C1138.9 439.342 1111.08 410.238 1083.26 391.62C1055.44 373.002 1027.62 365.298 999.372 352.458C971.338 339.618 942.662 321.642 914.628 337.05C886.38 352.458 858.56 400.822 830.74 409.168C802.92 417.3 775.1 385.2 747.28 388.838C719.46 392.262 691.64 431.638 663.82 434.42C636 437.202 608.18 403.818 580.36 389.908C552.54 375.998 524.72 381.562 496.9 371.718C469.08 361.66 441.26 335.98 413.44 346.68C385.62 357.38 357.8 404.46 329.552 413.448C301.518 422.222 272.842 393.118 244.808 399.752C216.56 406.6 188.74 449.4 160.92 447.902C133.1 446.618 105.28 400.822 77.46 377.068C49.6399 353.1 21.8199 350.96 7.90991 349.89L-6.00012 348.82V-2.14023H7.90991C21.8199 -2.14023 49.6399 -2.14023 77.46 -2.14023C105.28 -2.14023 133.1 -2.14023 160.92 -2.14023C188.74 -2.14023 216.56 -2.14023 244.808 -2.14023C272.842 -2.14023 301.518 -2.14023 329.552 -2.14023C357.8 -2.14023 385.62 -2.14023 413.44 -2.14023C441.26 -2.14023 469.08 -2.14023 496.9 -2.14023C524.72 -2.14023 552.54 -2.14023 580.36 -2.14023C608.18 -2.14023 636 -2.14023 663.82 -2.14023C691.64 -2.14023 719.46 -2.14023 747.28 -2.14023C775.1 -2.14023 802.92 -2.14023 830.74 -2.14023C858.56 -2.14023 886.38 -2.14023 914.628 -2.14023C942.662 -2.14023 971.338 -2.14023 999.372 -2.14023C1027.62 -2.14023 1055.44 -2.14023 1083.26 -2.14023C1111.08 -2.14023 1138.9 -2.14023 1166.72 -2.14023C1194.54 -2.14023 1222.36 -2.14023 1250.18 -2.14023C1278 -2.14023 1305.82 -2.14023 1333.64 -2.14023C1361.46 -2.14023 1389.28 -2.14023 1417.1 -2.14023C1444.92 -2.14023 1472.74 -2.14023 1500.56 -2.14023C1528.38 -2.14023 1556.2 -2.14023 1584.45 -2.14023C1612.48 -2.14023 1641.16 -2.14023 1669.19 -2.14023C1697.44 -2.14023 1725.26 -2.14023 1753.08 -2.14023C1780.9 -2.14023 1808.72 -2.14023 1836.54 -2.14023C1864.36 -2.14023 1892.18 -2.14023 1906.09 -2.14023H1920V344.54Z" fill="#6D6D6D"/>
<path d="M1920 378.78L1906.09 379.208C1892.18 379.422 1864.36 380.278 1836.54 391.62C1808.72 402.962 1780.9 425.218 1753.08 422.65C1725.26 420.082 1697.44 393.118 1669.19 379.208C1641.16 365.298 1612.48 364.442 1584.45 366.582C1556.2 368.722 1528.38 373.858 1500.56 373.43C1472.74 373.002 1444.92 367.438 1417.1 364.87C1389.28 362.302 1361.46 363.158 1333.64 359.092C1305.82 355.24 1278 346.68 1250.18 346.68C1222.36 346.68 1194.54 355.24 1166.72 359.52C1138.9 363.8 1111.08 363.8 1083.26 344.54C1055.44 325.28 1027.62 286.76 999.372 276.488C971.338 266.002 942.662 283.978 914.628 298.958C886.38 313.938 858.56 325.922 830.74 341.33C802.92 356.738 775.1 375.142 747.28 380.278C719.46 385.2 691.64 376.64 663.82 362.302C636 348.178 608.18 328.062 580.36 318.86C552.54 309.658 524.72 310.942 496.9 321.642C469.08 332.342 441.26 352.458 413.44 353.1C385.62 353.742 357.8 335.338 329.552 338.548C301.518 341.758 272.842 366.582 244.808 384.558C216.56 402.32 188.74 413.02 160.92 396.97C133.1 380.92 105.28 338.12 77.46 309.658C49.6399 280.982 21.8199 266.858 7.90991 259.582L-6.00012 252.52V-2.14001H7.90991C21.8199 -2.14001 49.6399 -2.14001 77.46 -2.14001C105.28 -2.14001 133.1 -2.14001 160.92 -2.14001C188.74 -2.14001 216.56 -2.14001 244.808 -2.14001C272.842 -2.14001 301.518 -2.14001 329.552 -2.14001C357.8 -2.14001 385.62 -2.14001 413.44 -2.14001C441.26 -2.14001 469.08 -2.14001 496.9 -2.14001C524.72 -2.14001 552.54 -2.14001 580.36 -2.14001C608.18 -2.14001 636 -2.14001 663.82 -2.14001C691.64 -2.14001 719.46 -2.14001 747.28 -2.14001C775.1 -2.14001 802.92 -2.14001 830.74 -2.14001C858.56 -2.14001 886.38 -2.14001 914.628 -2.14001C942.662 -2.14001 971.338 -2.14001 999.372 -2.14001C1027.62 -2.14001 1055.44 -2.14001 1083.26 -2.14001C1111.08 -2.14001 1138.9 -2.14001 1166.72 -2.14001C1194.54 -2.14001 1222.36 -2.14001 1250.18 -2.14001C1278 -2.14001 1305.82 -2.14001 1333.64 -2.14001C1361.46 -2.14001 1389.28 -2.14001 1417.1 -2.14001C1444.92 -2.14001 1472.74 -2.14001 1500.56 -2.14001C1528.38 -2.14001 1556.2 -2.14001 1584.45 -2.14001C1612.48 -2.14001 1641.16 -2.14001 1669.19 -2.14001C1697.44 -2.14001 1725.26 -2.14001 1753.08 -2.14001C1780.9 -2.14001 1808.72 -2.14001 1836.54 -2.14001C1864.36 -2.14001 1892.18 -2.14001 1906.09 -2.14001H1920V378.78Z" fill="#747272"/>
<path d="M1920 241.82L1906.09 250.808C1892.18 259.582 1864.36 277.558 1836.54 285.262C1808.72 293.18 1780.9 291.04 1753.08 279.27C1725.26 267.5 1697.44 246.1 1669.19 257.87C1641.16 269.64 1612.48 314.58 1584.45 316.72C1556.2 318.86 1528.38 278.2 1500.56 265.788C1472.74 253.162 1444.92 268.998 1417.1 274.99C1389.28 280.982 1361.46 277.558 1333.64 272.85C1305.82 268.142 1278 262.578 1250.18 273.92C1222.36 285.262 1194.54 313.938 1166.72 328.49C1138.9 343.042 1111.08 343.898 1083.26 330.202C1055.44 316.72 1027.62 288.9 999.372 279.27C971.338 269.64 942.662 278.2 914.628 286.76C886.38 295.32 858.56 303.88 830.74 300.242C802.92 296.818 775.1 280.982 747.28 271.78C719.46 262.578 691.64 259.582 663.82 274.562C636 289.542 608.18 322.498 580.36 341.758C552.54 361.018 524.72 366.582 496.9 353.528C469.08 340.26 441.26 308.16 413.44 291.04C385.62 273.92 357.8 271.78 329.552 287.188C301.518 302.382 272.842 335.338 244.808 329.56C216.56 323.782 188.74 279.698 160.92 272.85C133.1 266.002 105.28 296.818 77.46 301.312C49.6399 306.02 21.8199 284.62 7.90991 273.92L-6.00012 263.22V-2.13992H7.90991C21.8199 -2.13992 49.6399 -2.13992 77.46 -2.13992C105.28 -2.13992 133.1 -2.13992 160.92 -2.13992C188.74 -2.13992 216.56 -2.13992 244.808 -2.13992C272.842 -2.13992 301.518 -2.13992 329.552 -2.13992C357.8 -2.13992 385.62 -2.13992 413.44 -2.13992C441.26 -2.13992 469.08 -2.13992 496.9 -2.13992C524.72 -2.13992 552.54 -2.13992 580.36 -2.13992C608.18 -2.13992 636 -2.13992 663.82 -2.13992C691.64 -2.13992 719.46 -2.13992 747.28 -2.13992C775.1 -2.13992 802.92 -2.13992 830.74 -2.13992C858.56 -2.13992 886.38 -2.13992 914.628 -2.13992C942.662 -2.13992 971.338 -2.13992 999.372 -2.13992C1027.62 -2.13992 1055.44 -2.13992 1083.26 -2.13992C1111.08 -2.13992 1138.9 -2.13992 1166.72 -2.13992C1194.54 -2.13992 1222.36 -2.13992 1250.18 -2.13992C1278 -2.13992 1305.82 -2.13992 1333.64 -2.13992C1361.46 -2.13992 1389.28 -2.13992 1417.1 -2.13992C1444.92 -2.13992 1472.74 -2.13992 1500.56 -2.13992C1528.38 -2.13992 1556.2 -2.13992 1584.45 -2.13992C1612.48 -2.13992 1641.16 -2.13992 1669.19 -2.13992C1697.44 -2.13992 1725.26 -2.13992 1753.08 -2.13992C1780.9 -2.13992 1808.72 -2.13992 1836.54 -2.13992C1864.36 -2.13992 1892.18 -2.13992 1906.09 -2.13992H1920V241.82Z" fill="#7E7E7E"/>
<path d="M1920 239.68L1906.09 238.61C1892.18 237.54 1864.36 235.4 1836.54 232.832C1808.72 230.478 1780.9 227.482 1753.08 242.462C1725.26 257.442 1697.44 290.398 1669.19 292.752C1641.16 295.32 1612.48 267.5 1584.45 246.528C1556.2 225.342 1528.38 211.218 1500.56 200.732C1472.74 190.46 1444.92 184.04 1417.1 199.662C1389.28 215.498 1361.46 253.162 1333.64 273.92C1305.82 294.678 1278 298.102 1250.18 302.168C1222.36 306.02 1194.54 310.3 1166.72 308.16C1138.9 306.02 1111.08 297.46 1083.26 284.62C1055.44 271.78 1027.62 254.66 999.372 236.898C971.338 218.922 942.662 200.518 914.628 208.008C886.38 215.498 858.56 248.882 830.74 258.94C802.92 268.998 775.1 255.302 747.28 249.738C719.46 243.96 691.64 246.1 663.82 245.672C636 245.458 608.18 242.462 580.36 233.26C552.54 224.058 524.72 208.222 496.9 206.51C469.08 204.798 441.26 216.782 413.44 231.762C385.62 246.742 357.8 264.718 329.552 261.508C301.518 258.298 272.842 233.902 244.808 229.408C216.56 224.7 188.74 239.68 160.92 248.882C133.1 258.298 105.28 261.722 77.46 257.228C49.6399 252.52 21.8199 239.68 7.90991 233.26L-6.00012 226.84V-2.13995H7.90991C21.8199 -2.13995 49.6399 -2.13995 77.46 -2.13995C105.28 -2.13995 133.1 -2.13995 160.92 -2.13995C188.74 -2.13995 216.56 -2.13995 244.808 -2.13995C272.842 -2.13995 301.518 -2.13995 329.552 -2.13995C357.8 -2.13995 385.62 -2.13995 413.44 -2.13995C441.26 -2.13995 469.08 -2.13995 496.9 -2.13995C524.72 -2.13995 552.54 -2.13995 580.36 -2.13995C608.18 -2.13995 636 -2.13995 663.82 -2.13995C691.64 -2.13995 719.46 -2.13995 747.28 -2.13995C775.1 -2.13995 802.92 -2.13995 830.74 -2.13995C858.56 -2.13995 886.38 -2.13995 914.628 -2.13995C942.662 -2.13995 971.338 -2.13995 999.372 -2.13995C1027.62 -2.13995 1055.44 -2.13995 1083.26 -2.13995C1111.08 -2.13995 1138.9 -2.13995 1166.72 -2.13995C1194.54 -2.13995 1222.36 -2.13995 1250.18 -2.13995C1278 -2.13995 1305.82 -2.13995 1333.64 -2.13995C1361.46 -2.13995 1389.28 -2.13995 1417.1 -2.13995C1444.92 -2.13995 1472.74 -2.13995 1500.56 -2.13995C1528.38 -2.13995 1556.2 -2.13995 1584.45 -2.13995C1612.48 -2.13995 1641.16 -2.13995 1669.19 -2.13995C1697.44 -2.13995 1725.26 -2.13995 1753.08 -2.13995C1780.9 -2.13995 1808.72 -2.13995 1836.54 -2.13995C1864.36 -2.13995 1892.18 -2.13995 1906.09 -2.13995H1920V239.68Z" fill="#8C8C8C"/>
<path d="M1920 199.02L1906.09 194.74C1892.18 190.46 1864.36 181.9 1836.54 192.172C1808.72 202.658 1780.9 231.762 1753.08 227.482C1725.26 223.202 1697.44 185.538 1669.19 184.468C1641.16 183.398 1612.48 218.922 1584.45 225.77C1556.2 232.618 1528.38 210.362 1500.56 215.712C1472.74 221.062 1444.92 254.018 1417.1 252.52C1389.28 251.022 1361.46 215.498 1333.64 200.518C1305.82 185.538 1278 191.102 1250.18 197.308C1222.36 203.3 1194.54 209.72 1166.72 225.77C1138.9 241.82 1111.08 267.5 1083.26 259.368C1055.44 251.022 1027.62 209.078 999.372 193.67C971.338 178.262 942.662 189.818 914.628 198.378C886.38 206.938 858.56 212.502 830.74 226.412C802.92 240.322 775.1 262.578 747.28 271.78C719.46 280.982 691.64 277.558 663.82 264.932C636 252.52 608.18 231.12 580.36 225.128C552.54 218.922 524.72 228.338 496.9 228.552C469.08 228.98 441.26 220.42 413.44 224.7C385.62 228.98 357.8 246.1 329.552 252.948C301.518 259.582 272.842 256.158 244.808 254.018C216.56 251.878 188.74 251.022 160.92 245.03C133.1 239.038 105.28 227.482 77.4601 231.12C49.64 234.758 21.8201 253.162 7.91003 262.578L-6 271.78V-2.13998H7.91003C21.8201 -2.13998 49.64 -2.13998 77.4601 -2.13998C105.28 -2.13998 133.1 -2.13998 160.92 -2.13998C188.74 -2.13998 216.56 -2.13998 244.808 -2.13998C272.842 -2.13998 301.518 -2.13998 329.552 -2.13998C357.8 -2.13998 385.62 -2.13998 413.44 -2.13998C441.26 -2.13998 469.08 -2.13998 496.9 -2.13998C524.72 -2.13998 552.54 -2.13998 580.36 -2.13998C608.18 -2.13998 636 -2.13998 663.82 -2.13998C691.64 -2.13998 719.46 -2.13998 747.28 -2.13998C775.1 -2.13998 802.92 -2.13998 830.74 -2.13998C858.56 -2.13998 886.38 -2.13998 914.628 -2.13998C942.662 -2.13998 971.338 -2.13998 999.372 -2.13998C1027.62 -2.13998 1055.44 -2.13998 1083.26 -2.13998C1111.08 -2.13998 1138.9 -2.13998 1166.72 -2.13998C1194.54 -2.13998 1222.36 -2.13998 1250.18 -2.13998C1278 -2.13998 1305.82 -2.13998 1333.64 -2.13998C1361.46 -2.13998 1389.28 -2.13998 1417.1 -2.13998C1444.92 -2.13998 1472.74 -2.13998 1500.56 -2.13998C1528.38 -2.13998 1556.2 -2.13998 1584.45 -2.13998C1612.48 -2.13998 1641.16 -2.13998 1669.19 -2.13998C1697.44 -2.13998 1725.26 -2.13998 1753.08 -2.13998C1780.9 -2.13998 1808.72 -2.13998 1836.54 -2.13998C1864.36 -2.13998 1892.18 -2.13998 1906.09 -2.13998H1920V199.02Z" fill="#999999"/>
<path d="M1920 128.4L1906.09 146.162C1892.18 164.138 1864.36 199.662 1836.54 215.712C1808.72 231.762 1780.9 228.338 1753.08 214.642C1725.26 201.16 1697.44 177.62 1669.19 167.348C1641.16 156.862 1612.48 159.858 1584.45 167.99C1556.2 176.122 1528.38 189.818 1500.56 199.662C1472.74 209.72 1444.92 216.14 1417.1 207.152C1389.28 198.378 1361.46 173.982 1333.64 157.29C1305.82 140.598 1278 131.182 1250.18 124.762C1222.36 118.342 1194.54 114.918 1166.72 124.12C1138.9 133.322 1111.08 155.578 1083.26 160.928C1055.44 166.278 1027.62 154.722 999.372 153.01C971.338 151.298 942.662 159.002 914.628 171.842C886.38 184.682 858.56 202.658 830.74 208.222C802.92 214 775.1 207.58 747.28 201.16C719.46 194.74 691.64 188.32 663.82 188.962C636 189.818 608.18 197.522 580.36 207.152C552.54 216.782 524.72 228.338 496.9 221.49C469.08 214.642 441.26 189.818 413.44 182.328C385.62 174.838 357.8 184.682 329.552 176.122C301.518 167.562 272.842 140.598 244.808 127.758C216.56 114.918 188.74 116.202 160.92 117.272C133.1 118.342 105.28 119.198 77.46 135.462C49.6399 151.94 21.8199 184.04 7.90991 200.09L-6.00012 216.14V-2.13989H7.90991C21.8199 -2.13989 49.6399 -2.13989 77.46 -2.13989C105.28 -2.13989 133.1 -2.13989 160.92 -2.13989C188.74 -2.13989 216.56 -2.13989 244.808 -2.13989C272.842 -2.13989 301.518 -2.13989 329.552 -2.13989C357.8 -2.13989 385.62 -2.13989 413.44 -2.13989C441.26 -2.13989 469.08 -2.13989 496.9 -2.13989C524.72 -2.13989 552.54 -2.13989 580.36 -2.13989C608.18 -2.13989 636 -2.13989 663.82 -2.13989C691.64 -2.13989 719.46 -2.13989 747.28 -2.13989C775.1 -2.13989 802.92 -2.13989 830.74 -2.13989C858.56 -2.13989 886.38 -2.13989 914.628 -2.13989C942.662 -2.13989 971.338 -2.13989 999.372 -2.13989C1027.62 -2.13989 1055.44 -2.13989 1083.26 -2.13989C1111.08 -2.13989 1138.9 -2.13989 1166.72 -2.13989C1194.54 -2.13989 1222.36 -2.13989 1250.18 -2.13989C1278 -2.13989 1305.82 -2.13989 1333.64 -2.13989C1361.46 -2.13989 1389.28 -2.13989 1417.1 -2.13989C1444.92 -2.13989 1472.74 -2.13989 1500.56 -2.13989C1528.38 -2.13989 1556.2 -2.13989 1584.45 -2.13989C1612.48 -2.13989 1641.16 -2.13989 1669.19 -2.13989C1697.44 -2.13989 1725.26 -2.13989 1753.08 -2.13989C1780.9 -2.13989 1808.72 -2.13989 1836.54 -2.13989C1864.36 -2.13989 1892.18 -2.13989 1906.09 -2.13989H1920V128.4Z" fill="#ABABAB"/>
<path d="M1920 70.6203L1906.09 89.4523C1892.18 108.498 1864.36 146.162 1836.54 154.722C1808.72 163.282 1780.9 142.738 1753.08 134.178C1725.26 125.618 1697.44 129.042 1669.19 132.68C1641.16 136.318 1612.48 139.742 1584.45 136.532C1556.2 133.322 1528.38 123.478 1500.56 130.968C1472.74 138.458 1444.92 163.282 1417.1 162.64C1389.28 161.998 1361.46 135.462 1333.64 121.552C1305.82 107.642 1278 106.358 1250.18 100.58C1222.36 94.8023 1194.54 84.9583 1166.72 82.3903C1138.9 79.8223 1111.08 84.9584 1083.26 92.4484C1055.44 99.9384 1027.62 109.782 999.372 117.058C971.338 124.12 942.662 128.4 914.628 136.96C886.38 145.52 858.56 158.36 830.74 169.06C802.92 179.76 775.1 188.32 747.28 187.25C719.46 186.18 691.64 175.48 663.82 171.2C636 166.92 608.18 169.06 580.36 169.702C552.54 170.558 524.72 169.702 496.9 159.43C469.08 149.158 441.26 129.042 413.44 124.12C385.62 119.198 357.8 129.042 329.552 142.952C301.518 156.862 272.842 174.838 244.808 177.62C216.56 180.402 188.74 168.418 160.92 153.652C133.1 139.1 105.28 121.98 77.4601 120.91C49.64 119.84 21.8201 134.82 7.91003 142.31L-6 149.8V-2.13968H7.91003C21.8201 -2.13968 49.64 -2.13968 77.4601 -2.13968C105.28 -2.13968 133.1 -2.13968 160.92 -2.13968C188.74 -2.13968 216.56 -2.13968 244.808 -2.13968C272.842 -2.13968 301.518 -2.13968 329.552 -2.13968C357.8 -2.13968 385.62 -2.13968 413.44 -2.13968C441.26 -2.13968 469.08 -2.13968 496.9 -2.13968C524.72 -2.13968 552.54 -2.13968 580.36 -2.13968C608.18 -2.13968 636 -2.13968 663.82 -2.13968C691.64 -2.13968 719.46 -2.13968 747.28 -2.13968C775.1 -2.13968 802.92 -2.13968 830.74 -2.13968C858.56 -2.13968 886.38 -2.13968 914.628 -2.13968C942.662 -2.13968 971.338 -2.13968 999.372 -2.13968C1027.62 -2.13968 1055.44 -2.13968 1083.26 -2.13968C1111.08 -2.13968 1138.9 -2.13968 1166.72 -2.13968C1194.54 -2.13968 1222.36 -2.13968 1250.18 -2.13968C1278 -2.13968 1305.82 -2.13968 1333.64 -2.13968C1361.46 -2.13968 1389.28 -2.13968 1417.1 -2.13968C1444.92 -2.13968 1472.74 -2.13968 1500.56 -2.13968C1528.38 -2.13968 1556.2 -2.13968 1584.45 -2.13968C1612.48 -2.13968 1641.16 -2.13968 1669.19 -2.13968C1697.44 -2.13968 1725.26 -2.13968 1753.08 -2.13968C1780.9 -2.13968 1808.72 -2.13968 1836.54 -2.13968C1864.36 -2.13968 1892.18 -2.13968 1906.09 -2.13968H1920V70.6203Z" fill="#BBBBBB"/>
<path d="M1920 143.38L1906.09 140.812C1892.18 138.458 1864.36 133.322 1836.54 128.4C1808.72 123.478 1780.9 118.342 1753.08 119.412C1725.26 120.482 1697.44 127.758 1669.19 118.342C1641.16 109.14 1612.48 83.4599 1584.45 72.3319C1556.2 61.4179 1528.38 64.8419 1500.56 62.4879C1472.74 59.9199 1444.92 51.3599 1417.1 53.9279C1389.28 56.2819 1361.46 69.9779 1333.64 73.1879C1305.82 76.3979 1278 69.1219 1250.18 62.4879C1222.36 55.6399 1194.54 49.2199 1166.72 45.3679C1138.9 41.3019 1111.08 40.0179 1083.26 54.5699C1055.44 69.1219 1027.62 99.9379 999.372 106.358C971.338 112.778 942.662 94.8019 914.628 84.9579C886.38 74.8999 858.56 72.7598 830.74 74.4719C802.92 76.3979 775.1 81.9619 747.28 79.1799C719.46 76.3979 691.64 64.8419 663.82 68.9079C636 72.7599 608.18 92.0199 580.36 92.4479C552.54 92.6619 524.72 74.2579 496.9 62.7019C469.08 51.3598 441.26 47.0798 413.44 50.9319C385.62 54.9978 357.8 66.9819 329.552 71.0479C301.518 74.8999 272.842 70.6199 244.808 77.4679C216.56 84.1019 188.74 102.078 160.92 96.9419C133.1 92.0199 105.28 64.1999 77.46 52.8579C49.6399 41.3019 21.8199 46.4379 7.90991 48.7919L-6.00012 51.3599V-2.14012H7.90991C21.8199 -2.14012 49.6399 -2.14012 77.46 -2.14012C105.28 -2.14012 133.1 -2.14012 160.92 -2.14012C188.74 -2.14012 216.56 -2.14012 244.808 -2.14012C272.842 -2.14012 301.518 -2.14012 329.552 -2.14012C357.8 -2.14012 385.62 -2.14012 413.44 -2.14012C441.26 -2.14012 469.08 -2.14012 496.9 -2.14012C524.72 -2.14012 552.54 -2.14012 580.36 -2.14012C608.18 -2.14012 636 -2.14012 663.82 -2.14012C691.64 -2.14012 719.46 -2.14012 747.28 -2.14012C775.1 -2.14012 802.92 -2.14012 830.74 -2.14012C858.56 -2.14012 886.38 -2.14012 914.628 -2.14012C942.662 -2.14012 971.338 -2.14012 999.372 -2.14012C1027.62 -2.14012 1055.44 -2.14012 1083.26 -2.14012C1111.08 -2.14012 1138.9 -2.14012 1166.72 -2.14012C1194.54 -2.14012 1222.36 -2.14012 1250.18 -2.14012C1278 -2.14012 1305.82 -2.14012 1333.64 -2.14012C1361.46 -2.14012 1389.28 -2.14012 1417.1 -2.14012C1444.92 -2.14012 1472.74 -2.14012 1500.56 -2.14012C1528.38 -2.14012 1556.2 -2.14012 1584.45 -2.14012C1612.48 -2.14012 1641.16 -2.14012 1669.19 -2.14012C1697.44 -2.14012 1725.26 -2.14012 1753.08 -2.14012C1780.9 -2.14012 1808.72 -2.14012 1836.54 -2.14012C1864.36 -2.14012 1892.18 -2.14012 1906.09 -2.14012H1920V143.38Z" fill="#D3D3D3"/>
<path d="M1920 29.9602L1906.09 37.4502C1892.18 44.9402 1864.36 59.9202 1836.54 63.1302C1808.72 66.3402 1780.9 57.7802 1753.08 46.6522C1725.26 35.7382 1697.44 22.0422 1669.19 18.6182C1641.16 14.9802 1612.48 21.4002 1584.45 20.3302C1556.2 19.2602 1528.38 10.7002 1500.56 11.7702C1472.74 12.8402 1444.92 23.5402 1417.1 25.0382C1389.28 26.3222 1361.46 18.6182 1333.64 21.8282C1305.82 25.0382 1278 39.1622 1250.18 43.2282C1222.36 47.0802 1194.54 40.6602 1166.72 33.1702C1138.9 25.6802 1111.08 17.1202 1083.26 17.5482C1055.44 17.7622 1027.62 27.1782 999.372 34.8822C971.338 42.8002 942.662 49.2202 914.628 50.9322C886.38 52.8582 858.56 49.8622 830.74 46.6522C802.92 43.4422 775.1 40.0182 747.28 38.0922C719.46 36.3802 691.64 36.3802 663.82 36.8082C636 37.0222 608.18 37.8782 580.36 48.1502C552.54 58.4222 524.72 78.5382 496.9 88.1682C469.08 97.7982 441.26 96.9422 413.44 84.9582C385.62 72.7602 357.8 49.2202 329.552 49.8622C301.518 50.7182 272.842 75.5422 244.808 85.1722C216.56 94.8022 188.74 89.2382 160.92 86.0282C133.1 82.8182 105.28 81.9622 77.46 74.4722C49.6399 66.9822 21.8199 52.8582 7.90991 45.5822L-6.00012 38.5202V-2.13982L7.90991 -2.13982C21.8199 -2.13982 49.6399 -2.13982 77.46 -2.13982C105.28 -2.13982 133.1 -2.13982 160.92 -2.13982C188.74 -2.13982 216.56 -2.13982 244.808 -2.13982C272.842 -2.13982 301.518 -2.13982 329.552 -2.13982C357.8 -2.13982 385.62 -2.13982 413.44 -2.13982C441.26 -2.13982 469.08 -2.13982 496.9 -2.13982C524.72 -2.13982 552.54 -2.13982 580.36 -2.13982C608.18 -2.13982 636 -2.13982 663.82 -2.13982C691.64 -2.13982 719.46 -2.13982 747.28 -2.13982C775.1 -2.13982 802.92 -2.13982 830.74 -2.13982C858.56 -2.13982 886.38 -2.13982 914.628 -2.13982C942.662 -2.13982 971.338 -2.13982 999.372 -2.13982C1027.62 -2.13982 1055.44 -2.13982 1083.26 -2.13982C1111.08 -2.13982 1138.9 -2.13982 1166.72 -2.13982C1194.54 -2.13982 1222.36 -2.13982 1250.18 -2.13982C1278 -2.13982 1305.82 -2.13982 1333.64 -2.13982C1361.46 -2.13982 1389.28 -2.13982 1417.1 -2.13982C1444.92 -2.13982 1472.74 -2.13982 1500.56 -2.13982C1528.38 -2.13982 1556.2 -2.13982 1584.45 -2.13982C1612.48 -2.13982 1641.16 -2.13982 1669.19 -2.13982C1697.44 -2.13982 1725.26 -2.13982 1753.08 -2.13982C1780.9 -2.13982 1808.72 -2.13982 1836.54 -2.13982C1864.36 -2.13982 1892.18 -2.13982 1906.09 -2.13982H1920V29.9602Z" fill="#E0E0E0"/>
</g>
<defs>
<clipPath id="clip0_142_144">
<rect width="1926" height="678" fill="white" transform="translate(1920 678) rotate(-180)"/>
</clipPath>
</defs>
</svg>
