<svg id="visual" viewBox="0 0 900 2998" width="900" height="2998" xmlns="http://www.w3.org/2000/svg" xmlns:xlink="http://www.w3.org/1999/xlink" version="1.1"><rect width="900" height="2998" fill="#d8d8d8"></rect><g><g transform="translate(453 1070)"><path d="M0 -172.6L149.5 -86.3L149.5 86.3L0 172.6L-149.5 86.3L-149.5 -86.3Z" fill="none" stroke="#848484" stroke-width="2"></path></g><g transform="translate(131 2969)"><path d="M0 -97L84 -48.5L84 48.5L0 97L-84 48.5L-84 -48.5Z" fill="none" stroke="#848484" stroke-width="2"></path></g><g transform="translate(737 1761)"><path d="M0 -61L52.8 -30.5L52.8 30.5L0 61L-52.8 30.5L-52.8 -30.5Z" fill="none" stroke="#848484" stroke-width="2"></path></g><g transform="translate(855 756)"><path d="M0 -131L113.4 -65.5L113.4 65.5L0 131L-113.4 65.5L-113.4 -65.5Z" fill="none" stroke="#848484" stroke-width="2"></path></g><g transform="translate(231 1782)"><path d="M0 -162L140.3 -81L140.3 81L0 162L-140.3 81L-140.3 -81Z" fill="none" stroke="#848484" stroke-width="2"></path></g><g transform="translate(365 484)"><path d="M0 -137L118.6 -68.5L118.6 68.5L0 137L-118.6 68.5L-118.6 -68.5Z" fill="none" stroke="#848484" stroke-width="2"></path></g><g transform="translate(7 1120)"><path d="M0 -95L82.3 -47.5L82.3 47.5L0 95L-82.3 47.5L-82.3 -47.5Z" fill="none" stroke="#848484" stroke-width="2"></path></g><g transform="translate(747 76)"><path d="M0 -169L146.4 -84.5L146.4 84.5L0 169L-146.4 84.5L-146.4 -84.5Z" fill="none" stroke="#848484" stroke-width="2"></path></g><g transform="translate(116 737)"><path d="M0 -25L21.7 -12.5L21.7 12.5L0 25L-21.7 12.5L-21.7 -12.5Z" fill="none" stroke="#848484" stroke-width="2"></path></g><g transform="translate(364 2574)"><path d="M0 -154L133.4 -77L133.4 77L0 154L-133.4 77L-133.4 -77Z" fill="none" stroke="#848484" stroke-width="2"></path></g><g transform="translate(701 2161)"><path d="M0 -150L129.9 -75L129.9 75L0 150L-129.9 75L-129.9 -75Z" fill="none" stroke="#848484" stroke-width="2"></path></g><g transform="translate(60 223)"><path d="M0 -132L114.3 -66L114.3 66L0 132L-114.3 66L-114.3 -66Z" fill="none" stroke="#848484" stroke-width="2"></path></g><g transform="translate(846 2808)"><path d="M0 -114L98.7 -57L98.7 57L0 114L-98.7 57L-98.7 -57Z" fill="none" stroke="#848484" stroke-width="2"></path></g><g transform="translate(467 1464)"><path d="M0 -39L33.8 -19.5L33.8 19.5L0 39L-33.8 19.5L-33.8 -19.5Z" fill="none" stroke="#848484" stroke-width="2"></path></g><g transform="translate(848 1426)"><path d="M0 -98L84.9 -49L84.9 49L0 98L-84.9 49L-84.9 -49Z" fill="none" stroke="#848484" stroke-width="2"></path></g><g transform="translate(26 2090)"><path d="M0 -134L116 -67L116 67L0 134L-116 67L-116 -67Z" fill="none" stroke="#848484" stroke-width="2"></path></g><g transform="translate(511 2915)"><path d="M0 -129L111.7 -64.5L111.7 64.5L0 129L-111.7 64.5L-111.7 -64.5Z" fill="none" stroke="#848484" stroke-width="2"></path></g><g transform="translate(16 2621)"><path d="M0 -126L109.1 -63L109.1 63L0 126L-109.1 63L-109.1 -63Z" fill="none" stroke="#848484" stroke-width="2"></path></g><g transform="translate(878 406)"><path d="M0 -68L58.9 -34L58.9 34L0 68L-58.9 34L-58.9 -34Z" fill="none" stroke="#848484" stroke-width="2"></path></g><g transform="translate(394 97)"><path d="M0 -36L31.2 -18L31.2 18L0 36L-31.2 18L-31.2 -18Z" fill="none" stroke="#848484" stroke-width="2"></path></g></g></svg>